<?xml version="1.0" encoding="UTF-8" standalone="no"?>
<svg width="333px" height="300px" viewBox="0 0 333 300" version="1.1" xmlns="http://www.w3.org/2000/svg" xmlns:xlink="http://www.w3.org/1999/xlink" xmlns:sketch="http://www.bohemiancoding.com/sketch/ns">
    <title>Objective O</title>
    <description>Created with Sketch (http://www.bohemiancoding.com/sketch)</description>
    <defs></defs>
    <g id="Page-1" stroke="none" stroke-width="1" fill="none" fill-rule="evenodd" sketch:type="MSPage">
        <path d="M61.7057014,112.67045 C69.7150833,119.641079 122.459071,178.490589 122.459071,178.490589 C129.655321,186.489172 141.846995,186.983339 149.679109,179.604542 L318.265537,20.7757982 C318.265537,20.7757982 322.332768,18.5065568 327.664799,21.7301279 C332.996831,24.9536991 333,28.134666 333,28.134666 L149.035589,218.680035 C141.554033,226.429228 130.422734,225.598331 124.179853,216.829409 C124.179853,216.829409 53.712683,117.948408 50.0981752,112.025759 C46.4836674,106.10311 52.1620756,108.976753 61.7057014,112.67045 Z M61.7057014,112.67045" id="Path" fill="#8AD56F" sketch:type="MSShapeGroup"></path>
        <g id="Objective-O" sketch:type="MSLayerGroup" fill="#444444">
            <path d="M150,300 C232.842717,300 300,232.842717 300,150 C300,67.1572834 232.842717,0 150,0 C67.1572834,0 0,67.1572834 0,150 C0,232.842717 67.1572834,300 150,300 Z M151,273 C218.378743,273 273,218.378743 273,151 C273,83.6212572 218.378743,29 151,29 C83.6212572,29 29,83.6212572 29,151 C29,218.378743 83.6212572,273 151,273 Z M151,273" id="Oval-5" sketch:type="MSShapeGroup"></path>
        </g>
    </g>
</svg>