<?xml version="1.0" encoding="utf-8"?>
<!-- Generator: Adobe Illustrator 17.0.0, SVG Export Plug-In . SVG Version: 6.00 Build 0)  -->
<!DOCTYPE svg PUBLIC "-//W3C//DTD SVG 1.1//EN" "http://www.w3.org/Graphics/SVG/1.1/DTD/svg11.dtd">
<svg version="1.1" id="Layer_1" xmlns:sketch="http://www.bohemiancoding.com/sketch/ns"
	 xmlns="http://www.w3.org/2000/svg" xmlns:xlink="http://www.w3.org/1999/xlink" x="0px" y="0px" width="2700px" height="622px"
	 viewBox="0 0 2700 622" enable-background="new 0 0 2700 622" xml:space="preserve">
<title>Objective Logo</title>
<description>Created with Sketch (http://www.bohemiancoding.com/sketch)</description>
<g id="Objective-Logo" sketch:type="MSPage">
	<g id="Objective-Full" transform="translate(-35.000000, -152.000000)" sketch:type="MSLayerGroup">
		<path id="Check" sketch:type="MSShapeGroup" fill="#8AD56F" d="M168.497,405.405c2.759-0.096,6.663,1.317,8.725,3.162
			l63.365,56.681c12.347,11.044,31.692,10.346,43.208-1.559L500.409,239.76c0,0,0.981-3.483,11.919-3.865
			c10.938-0.382,10.721,3.074,10.721,3.074L283.933,513.362c-10.883,12.489-28.541,12.497-39.435,0.024l-88.501-101.332
			c-2.908-3.33-1.684-6.154,2.727-6.308L168.497,405.405z"/>
		<g enable-background="new    ">
			<path fill="#444444" d="M495.577,403.05c0,33.704-5.832,64.707-17.477,92.999c-11.654,28.302-27.774,52.741-48.372,73.338
				c-20.597,20.597-44.938,36.728-73.025,48.372c-28.087,11.644-58.573,17.476-91.438,17.476c-32.875,0-63.352-5.832-91.438-17.476
				c-28.087-11.645-52.429-27.775-73.026-48.372c-20.597-20.597-36.728-45.036-48.372-73.338
				c-11.654-28.292-17.476-59.295-17.476-92.999s5.822-64.697,17.476-92.998c11.645-28.292,27.775-52.741,48.372-73.338
				c20.597-20.598,44.939-36.718,73.026-48.372c28.086-11.645,58.563-17.477,91.438-17.477c32.866,0,63.352,5.832,91.438,17.477
				c28.087,11.654,52.429,27.774,73.025,48.372c20.598,20.597,36.718,45.046,48.372,73.338
				C489.745,338.353,495.577,369.346,495.577,403.05z M448.142,403.362c0-25.756-4.164-50.264-12.483-73.533
				c-8.328-23.26-20.392-43.72-36.2-61.372c-15.818-17.651-35.061-31.676-57.734-42.062c-22.685-10.386-48.167-15.584-76.459-15.584
				c-28.301,0-53.784,5.198-76.458,15.584c-22.684,10.386-41.925,24.41-57.734,42.062c-15.818,17.652-27.882,38.112-36.201,61.372
				c-8.329,23.27-12.483,47.777-12.483,73.533c0,25.766,4.154,50.273,12.483,73.533c8.319,23.269,20.382,43.622,36.201,61.069
				c15.809,17.446,35.05,31.363,57.734,41.75c22.674,10.386,48.157,15.574,76.458,15.574c28.292,0,53.774-5.188,76.459-15.574
				c22.674-10.387,41.916-24.304,57.734-41.75c15.809-17.447,27.872-37.801,36.2-61.069
				C443.978,453.636,448.142,429.128,448.142,403.362z"/>
			<path fill="#444444" d="M630.388,574.692V624h-42.442V152.141h42.442v230.312h1.248c12.483-19.135,28.711-33.597,48.685-43.379
				c19.973-9.771,40.569-14.667,61.791-14.667c22.879,0,43.583,3.959,62.103,11.858c18.511,7.909,34.329,18.725,47.436,32.456
				c13.107,13.731,23.299,29.959,30.584,48.684c7.275,18.725,10.923,38.912,10.923,60.543c0,21.641-3.647,41.818-10.923,60.543
				c-7.285,18.725-17.477,34.952-30.584,48.684c-13.106,13.731-28.925,24.557-47.436,32.456
				c-18.52,7.899-39.224,11.859-62.103,11.859c-21.222,0-41.818-4.789-61.791-14.355c-19.974-9.567-36.201-23.718-48.685-42.442
				H630.388z M848.217,477.948c0-16.228-2.496-31.52-7.489-45.875s-12.171-26.839-21.533-37.449s-20.909-19.037-34.641-25.278
				s-29.335-9.362-46.812-9.362c-16.229,0-31.208,3.023-44.939,9.051c-13.731,6.036-25.59,14.355-35.576,24.966
				s-17.788,23.094-23.406,37.449c-5.617,14.355-8.426,29.861-8.426,46.499c0,16.647,2.809,32.144,8.426,46.499
				c5.618,14.355,13.42,26.741,23.406,37.138c9.986,10.405,21.845,18.627,35.576,24.654c13.731,6.036,28.711,9.05,44.939,9.05
				c17.477,0,33.08-3.014,46.812-9.05c13.731-6.027,25.278-14.356,34.641-24.967s16.54-23.094,21.533-37.449
				S848.217,494.177,848.217,477.948z"/>
			<path fill="#444444" d="M917.494,733.851c4.164,1.249,8.641,2.185,13.419,2.809s9.255,0.937,13.419,0.937
				c8.738,0,15.809-1.561,21.222-4.681c5.402-3.121,9.567-7.393,12.483-12.796c2.906-5.412,4.886-11.966,5.929-19.66
				c1.034-7.705,1.561-16.131,1.561-25.278V331.896h42.442v350.149c0,11.645-1.248,22.986-3.745,34.017
				c-2.496,11.021-6.865,20.802-13.106,29.335c-6.242,8.523-14.668,15.39-25.278,20.598c-10.611,5.197-24.245,7.802-40.882,7.802
				c-4.584,0-9.987-0.312-16.229-0.937s-12.063-1.775-17.477-3.433L917.494,733.851z M1036.707,219.549
				c0,8.738-3.121,15.916-9.362,21.533c-6.241,5.618-13.107,8.427-20.597,8.427c-7.49,0-14.355-2.809-20.598-8.427
				c-6.241-5.617-9.362-12.795-9.362-21.533c0-8.738,3.121-15.916,9.362-21.533c6.242-5.618,13.107-8.426,20.598-8.426
				c7.489,0,14.355,2.809,20.597,8.426C1033.586,203.633,1036.707,210.811,1036.707,219.549z"/>
			<path fill="#444444" d="M1406.824,469.21c0,2.916,0,6.037,0,9.362c0,3.336-0.215,6.866-0.624,10.61h-242.171
				c0.409,14.57,3.325,28.302,8.738,41.194c5.402,12.902,12.893,24.138,22.469,33.704c9.567,9.577,20.802,17.164,33.705,22.782
				c12.893,5.617,26.838,8.426,41.817,8.426c22.051,0,41.087-5.091,57.11-15.292c16.014-10.191,28.185-21.942,36.513-35.265
				l31.832,24.967c-17.477,22.06-36.728,37.868-57.734,47.436c-21.017,9.566-43.593,14.355-67.721,14.355
				c-21.641,0-41.721-3.853-60.23-11.547c-18.52-7.695-34.436-18.413-47.747-32.145c-13.322-13.731-23.825-29.959-31.521-48.684
				c-7.704-18.725-11.547-39.107-11.547-61.167c0-22.05,3.745-42.442,11.235-61.167c7.489-18.725,17.886-34.952,31.207-48.684
				c13.312-13.731,28.916-24.439,46.812-32.144c17.886-7.695,37.235-11.547,58.047-11.547c22.879,0,43.066,3.852,60.542,11.547
				c17.477,7.704,32.037,18.1,43.691,31.207c11.644,13.107,20.489,28.399,26.526,45.875
				C1403.801,430.513,1406.824,449.237,1406.824,469.21z M1363.758,455.479c-1.248-27.462-10.094-50.244-26.526-68.345
				c-16.442-18.1-39.849-27.15-70.217-27.15c-14.151,0-27.259,2.604-39.322,7.802c-12.073,5.208-22.684,12.278-31.831,21.222
				c-9.158,8.952-16.443,19.144-21.846,30.583c-5.413,11.449-8.533,23.406-9.362,35.889H1363.758z"/>
			<path fill="#444444" d="M1708.284,398.681c-7.08-11.234-17.378-20.489-30.896-27.774c-13.526-7.275-28.193-10.923-44.002-10.923
				c-17.067,0-32.456,3.023-46.188,9.051c-13.731,6.036-25.493,14.355-35.265,24.966c-9.782,10.61-17.271,23.094-22.47,37.449
				c-5.208,14.355-7.802,29.861-7.802,46.499c0,16.647,2.594,32.047,7.802,46.188c5.198,14.15,12.581,26.526,22.157,37.137
				c9.567,10.61,21.222,18.939,34.953,24.967c13.731,6.036,29.12,9.05,46.187,9.05c18.725,0,34.533-3.53,47.436-10.61
				c12.894-7.07,23.504-16.229,31.832-27.463l31.832,23.718c-12.483,15.398-27.774,27.677-45.875,36.825
				c-18.101,9.147-39.849,13.731-65.225,13.731c-23.718,0-45.153-3.853-64.287-11.547c-19.145-7.695-35.479-18.413-48.996-32.145
				c-13.526-13.731-24.03-29.959-31.52-48.684c-7.49-18.725-11.235-39.107-11.235-61.167c0-22.05,3.745-42.442,11.235-61.167
				c7.489-18.725,17.993-34.952,31.52-48.684c13.517-13.731,29.852-24.439,48.996-32.144c19.134-7.695,40.569-11.547,64.287-11.547
				c19.554,0,39.42,4.271,59.607,12.795c20.177,8.533,36.513,21.123,48.995,37.761L1708.284,398.681z"/>
			<path fill="#444444" d="M1941.718,367.474h-82.389v170.394c0,10.825,1.034,19.768,3.121,26.838
				c2.077,7.081,5.091,12.591,9.05,16.54c3.95,3.96,8.631,6.661,14.044,8.114c5.402,1.463,11.234,2.185,17.477,2.185
				c5.821,0,11.956-0.829,18.412-2.496c6.446-1.658,12.58-3.95,18.412-6.866l1.873,36.825c-7.49,2.916-15.292,5.091-23.406,6.554
				c-8.113,1.453-16.959,2.185-26.526,2.185c-7.909,0-16.228-1.044-24.966-3.121s-16.853-6.026-24.342-11.858
				c-7.49-5.822-13.634-13.731-18.413-23.718c-4.788-9.987-7.178-23.094-7.178-39.322V367.474h-60.542v-35.577h60.542v-82.388
				h42.442v82.388h82.389V367.474z"/>
			<path fill="#444444" d="M2059.674,219.549c0,8.738-3.121,15.916-9.362,21.533c-6.241,5.618-13.107,8.427-20.597,8.427
				c-7.49,0-14.356-2.809-20.598-8.427c-6.241-5.617-9.362-12.795-9.362-21.533c0-8.738,3.121-15.916,9.362-21.533
				c6.241-5.618,13.107-8.426,20.598-8.426c7.489,0,14.355,2.809,20.597,8.426C2056.553,203.633,2059.674,210.811,2059.674,219.549z
				 M2050.936,624h-42.442V331.896h42.442V624z"/>
			<path fill="#444444" d="M2283.744,624h-46.812L2117.72,331.896h47.436l94.871,247.164h1.248l95.496-247.164h45.562L2283.744,624z
				"/>
			<path fill="#444444" d="M2734.377,469.21c0,2.916,0,6.037,0,9.362c0,3.336-0.215,6.866-0.624,10.61h-242.171
				c0.409,14.57,3.325,28.302,8.738,41.194c5.402,12.902,12.893,24.138,22.469,33.704c9.567,9.577,20.802,17.164,33.705,22.782
				c12.893,5.617,26.838,8.426,41.817,8.426c22.051,0,41.087-5.091,57.11-15.292c16.014-10.191,28.185-21.942,36.513-35.265
				l31.832,24.967c-17.477,22.06-36.728,37.868-57.734,47.436c-21.017,9.566-43.593,14.355-67.721,14.355
				c-21.641,0-41.721-3.853-60.23-11.547c-18.52-7.695-34.436-18.413-47.747-32.145c-13.322-13.731-23.825-29.959-31.521-48.684
				c-7.704-18.725-11.547-39.107-11.547-61.167c0-22.05,3.745-42.442,11.235-61.167c7.489-18.725,17.886-34.952,31.207-48.684
				c13.312-13.731,28.916-24.439,46.812-32.144c17.886-7.695,37.235-11.547,58.047-11.547c22.879,0,43.066,3.852,60.542,11.547
				c17.477,7.704,32.037,18.1,43.691,31.207c11.644,13.107,20.489,28.399,26.526,45.875
				C2731.354,430.513,2734.377,449.237,2734.377,469.21z M2691.311,455.479c-1.248-27.462-10.094-50.244-26.526-68.345
				c-16.442-18.1-39.849-27.15-70.217-27.15c-14.151,0-27.259,2.604-39.322,7.802c-12.073,5.208-22.684,12.278-31.831,21.222
				c-9.158,8.952-16.443,19.144-21.846,30.583c-5.413,11.449-8.533,23.406-9.362,35.889H2691.311z"/>
		</g>
	</g>
</g>
</svg>
