<?xml version="1.0" encoding="UTF-8" standalone="no"?>
<svg width="1024px" height="1024px" viewBox="0 0 1024 1024" version="1.1" xmlns="http://www.w3.org/2000/svg" xmlns:xlink="http://www.w3.org/1999/xlink" xmlns:sketch="http://www.bohemiancoding.com/sketch/ns">
    <title>Objective Logo</title>
    <description>Created with Sketch (http://www.bohemiancoding.com/sketch)</description>
    <defs></defs>
    <g id="Page-2" stroke="none" stroke-width="1" fill="none" fill-rule="evenodd" sketch:type="MSPage">
        <g id="Objective-O" sketch:type="MSLayerGroup">
            <path d="M328.825875,469.15117 C331.588623,469.151171 335.539876,470.58156 337.661043,472.354223 L480.96168,592.110781 C493.671436,602.732343 514.260124,602.705728 526.939915,592.057956 L987.061967,205.673468 C987.061967,205.673468 989.226701,199.775502 1010.72987,199.7755 C1032.23305,199.775498 1031.56937,205.673468 1031.56937,205.673468 L524.952338,677.743699 C512.83856,689.031423 493.851638,688.36827 482.554035,676.273398 L294.547513,474.999305 C291.530576,471.769463 292.670772,469.15116 297.08409,469.151161 L328.825875,469.15117 Z M328.825875,469.15117" id="Path" fill="#8AD56F" sketch:type="MSShapeGroup" transform="translate(662.216070, 442.785382) rotate(-2.000000) translate(-662.216070, -442.785382) "></path>
            <path d="M512,960 C759.42358,960 960,759.42358 960,512 C960,264.57642 759.42358,64 512,64 C264.57642,64 64,264.57642 64,512 C64,759.42358 264.57642,960 512,960 Z M514.986667,879.36 C716.224512,879.36 879.36,716.224512 879.36,514.986667 C879.36,313.748821 716.224512,150.613333 514.986667,150.613333 C313.748821,150.613333 150.613333,313.748821 150.613333,514.986667 C150.613333,716.224512 313.748821,879.36 514.986667,879.36 Z M514.986667,879.36" id="Oval-5" fill="#444444" sketch:type="MSShapeGroup"></path>
        </g>
    </g>
</svg>