<?xml version="1.0" encoding="UTF-8" standalone="no"?>
<svg width="1024px" height="1024px" viewBox="0 0 1024 1024" version="1.1" xmlns="http://www.w3.org/2000/svg" xmlns:xlink="http://www.w3.org/1999/xlink" xmlns:sketch="http://www.bohemiancoding.com/sketch/ns">
    <title>Objective Logo</title>
    <description>Created with Sketch (http://www.bohemiancoding.com/sketch)</description>
    <defs></defs>
    <g id="Page-2" stroke="none" stroke-width="1" fill="none" fill-rule="evenodd" sketch:type="MSPage">
        <g id="Objective-O" sketch:type="MSLayerGroup">
            <rect d="M8.00083798,0 C3.58209718,0 0,3.58174907 0,8.00083798 L0,1015.99916 C0,1020.4179 3.58174907,1024 8.00083798,1024 L1015.99916,1024 C1020.4179,1024 1024,1020.41825 1024,1015.99916 L1024,8.00083798 C1024,3.58209718 1020.41825,0 1015.99916,0 L8.00083798,0 Z M8.00083798,0" id="Rectangle-1" stroke="#979797" fill="#FFFFFF" sketch:type="MSShapeGroup" x="0" y="0" width="1024" height="1024" rx="8"></rect>
            <path d="M244.413527,427.898557 C246.51509,428.580252 249.445288,430.44622 250.946409,432.05357 L388.795815,579.658136 C400.099962,591.762241 419.074895,592.39724 431.163223,581.089814 L935.482498,109.349412 C935.482498,109.349412 945.792355,103.594089 959.308304,111.769813 C972.824253,119.945537 966.272843,134.289789 966.272843,134.289789 L430.619947,662.27279 C418.825268,673.898584 401.208161,672.590418 391.262831,659.339986 L213.709881,422.781387 C211.05663,419.24639 212.308642,417.484524 216.508982,418.847011 L244.413527,427.898557 Z M244.413527,427.898557" id="Path" fill="#8AD56F" sketch:type="MSShapeGroup" transform="translate(590.089044, 388.792243) rotate(-2.000000) translate(-590.089044, -388.792243) "></path>
            <path d="M512,960 C759.42358,960 960,759.42358 960,512 C960,264.57642 759.42358,64 512,64 C264.57642,64 64,264.57642 64,512 C64,759.42358 264.57642,960 512,960 Z M514.986667,879.36 C716.224512,879.36 879.36,716.224512 879.36,514.986667 C879.36,313.748821 716.224512,150.613333 514.986667,150.613333 C313.748821,150.613333 150.613333,313.748821 150.613333,514.986667 C150.613333,716.224512 313.748821,879.36 514.986667,879.36 Z M514.986667,879.36" id="Oval-5" fill="#444444" sketch:type="MSShapeGroup"></path>
        </g>
    </g>
</svg>